<svg width="96" height="72" viewBox="0 0 96 72" fill="none" xmlns="http://www.w3.org/2000/svg">
<path d="M94.2898 15.4C94.2898 15.4 93.3889 8.40002 90.4862 5.30002C86.8827 1.30002 82.7788 1.2 80.9771 1C67.6644 0 47.6454 0 47.6454 0H47.5453C47.5453 0 27.5262 0 14.2135 1C12.3117 1.2 8.30791 1.30002 4.70448 5.30002C1.90181 8.40002 0.900852 15.4 0.900852 15.4C0.900852 15.4 0 23.6 0 31.8V39.5C0 47.7 0.900852 55.9 0.900852 55.9C0.900852 55.9 1.80171 62.9 4.70448 66C8.30791 70 13.1125 69.9 15.2145 70.3C22.8217 71.1 47.6454 71.3 47.6454 71.3C47.6454 71.3 67.6644 71.3 80.9771 70.3C82.8789 70.1 86.8827 70 90.4862 66C93.2888 62.9 94.2898 55.9 94.2898 55.9C94.2898 55.9 95.1907 47.7 95.1907 39.5V31.8C95.1907 23.6 94.2898 15.4 94.2898 15.4Z" fill="white"/>
<path d="M35.6338 17.8V53.5L65.4622 35.7L35.6338 17.8Z" fill="#0029FF"/>
</svg>
