<svg viewBox="0 0 32 27" fill="none" xmlns="http://www.w3.org/2000/svg">
    <path d="M32 13.0912L29.6241 4.00051L18.2732 0L10.1358 0.795069L5.07075 3.17906L0.918854 7.36261L0 12.407L4.52528 18.1173H10.439L15.9217 22.8131L17.4164 21.6661V22.4933L22.7952 26.7056H25.9211L23.3695 21.8816L29.0206 17.888L32 13.0912ZM5.96362 4.44492L10.5465 2.28821L18.0853 1.55158L28.353 5.16977L28.8721 7.15724H22.2234L21.0147 9.24861H14.7264L13.754 7.56472L14.8535 6.01801H18.992C19.1945 6.23027 19.4778 6.36461 19.7943 6.36461C20.4064 6.36461 20.9031 5.86784 20.9031 5.25582C20.9031 4.64257 20.406 4.14621 19.7943 4.14621C19.4782 4.14621 19.1941 4.28055 18.992 4.49281H14.0657L12.9151 6.11176L12.5312 5.44657H4.96969L5.96362 4.44492ZM3.45544 6.97217H11.6505L13.8453 10.7746H21.8958L23.1037 8.68285H29.2714L29.948 11.2734H25.8318C25.6305 11.0608 25.346 10.9268 25.0294 10.9268C24.4174 10.9268 23.9207 11.4232 23.9207 12.0356C23.9207 12.6489 24.4178 13.1444 25.0294 13.1444C25.3452 13.1444 25.6293 13.0109 25.8314 12.799H30.3461L30.3579 12.8429L29.1489 14.7885H21.9519L20.9539 13.0612H12.7081L10.5133 9.25916H2.12343L2.33488 8.10126L3.45544 6.97217ZM21.3942 21.4088L23.3882 25.18H23.3208L18.9429 21.751V18.5735L15.9748 20.8496L11.0031 16.5917H5.26271L4.91409 16.1514L6.01598 14.6006H6.72217C6.92388 14.8133 7.20757 14.9472 7.52414 14.9472C8.13657 14.9472 8.63293 14.45 8.63293 13.8384C8.63293 13.2256 8.13616 12.7296 7.52414 12.7296C7.20797 12.7296 6.92388 12.8631 6.72217 13.0758H5.22822L3.92705 14.9066L1.62464 12.0019L1.84623 10.786H9.63255L11.8278 14.5884H12.8936L14.5081 17.4319H16.636C16.8377 17.6441 17.1214 17.778 17.4379 17.778C17.7545 17.778 18.0378 17.6445 18.2399 17.4319H18.2768V17.3872C18.4428 17.1936 18.5471 16.9448 18.5471 16.6688C18.5471 16.3933 18.4428 16.1441 18.2768 15.9501V15.9062H18.2391C18.037 15.6932 17.7537 15.5596 17.4371 15.5596C17.1206 15.5596 16.8369 15.6928 16.6352 15.9062H15.3953L14.6469 14.5884H20.0736L21.0716 16.3162H28.202L27.8875 16.8214L21.3942 21.4088Z" fill="#0029FF"/>
</svg>
