<svg width="120" height="120" viewBox="0 0 120 120" fill="none" xmlns="http://www.w3.org/2000/svg">
<rect width="120" height="120" rx="60" fill="#0029FF"/>
<path d="M100 59.3297L93.9118 36.0347L64.825 25.7834L43.973 27.8208L30.9938 33.9298L20.3546 44.6501L18 57.5763L29.596 72.2091H44.7499L58.7993 84.2419L62.6296 81.3029V83.4224L76.4128 94.2166H84.4228L77.8844 81.8551L92.3653 71.6215L100 59.3297ZM33.2818 37.1735L45.0255 31.6469L64.3435 29.7593L90.6545 39.031L91.9847 44.1239H74.9474L71.8503 49.483H55.7365L53.2446 45.168L56.062 41.2046H66.6669C67.1859 41.7485 67.9118 42.0927 68.723 42.0927C70.2913 42.0927 71.5643 40.8198 71.5643 39.2514C71.5643 37.68 70.2903 36.4081 68.723 36.4081C67.9128 36.4081 67.1848 36.7523 66.6669 37.2962H54.0434L51.0949 41.4448L50.1111 39.7402H30.7348L33.2818 37.1735ZM26.8546 43.6496H47.8543L53.4786 53.3934H74.1081L77.2032 48.0332H93.0081L94.7417 54.6716H84.194C83.6782 54.1266 82.9492 53.7834 82.138 53.7834C80.5696 53.7834 79.2967 55.0553 79.2967 56.6247C79.2967 58.1961 80.5707 59.466 82.138 59.466C82.9471 59.466 83.6751 59.1238 84.193 58.5809H95.762L95.7922 58.6932L92.694 63.679H74.2516L71.6943 59.2528H50.5645L44.9402 49.51H23.4413L23.9831 46.5429L26.8546 43.6496ZM72.8227 80.6435L77.9322 90.3072H77.7596L66.5411 81.5202V73.3781L58.9355 79.2104L46.1955 68.2997H31.4857L30.5923 67.1713L33.4159 63.1975H35.2256C35.7424 63.7424 36.4694 64.0856 37.2806 64.0856C38.85 64.0856 40.1219 62.8116 40.1219 61.2444C40.1219 59.674 38.8489 58.4031 37.2806 58.4031C36.4704 58.4031 35.7424 58.7452 35.2256 59.2902H31.3973L28.0631 63.9816L22.1631 56.5384L22.731 53.4225H42.6834L48.3088 63.1663H51.0398L55.177 70.4525H60.6297C61.1466 70.9965 61.8735 71.3397 62.6847 71.3397C63.4959 71.3397 64.2218 70.9975 64.7398 70.4525H64.8344V70.3381C65.2598 69.8421 65.5271 69.2045 65.5271 68.4973C65.5271 67.7912 65.2598 67.1526 64.8344 66.6555V66.5432H64.7377C64.2198 65.9972 63.4938 65.655 62.6826 65.655C61.8714 65.655 61.1445 65.9961 60.6276 66.5432H57.4504L55.5326 63.1663H69.4385L71.9959 67.5936H90.2677L89.4617 68.8884L72.8227 80.6435Z" fill="white"/>
</svg>
